<?xml version="1.0" standalone="no"?><!DOCTYPE svg PUBLIC "-//W3C//DTD SVG 1.1//EN" "http://www.w3.org/Graphics/SVG/1.1/DTD/svg11.dtd"><svg t="1558967236736" class="icon" style="" viewBox="0 0 1024 1024" version="1.1" xmlns="http://www.w3.org/2000/svg" p-id="2160" xmlns:xlink="http://www.w3.org/1999/xlink" width="200" height="200"><defs><style type="text/css"></style></defs><path d="M998.4 687.64672l-312.91904-105.22624s24.04864-35.9936 49.72032-106.5728 29.34784-109.33248 29.34784-109.33248l-202.55744-1.67424V295.65952l245.30944-1.73056v-48.91136h-245.36064V133.68832H441.79456v111.3344H212.9152v48.91136l228.87936-1.62304v74.20416H258.20672v38.74816h377.8816s-4.16256 31.45216-18.64704 70.5792-29.39904 73.3952-29.39904 73.3952-177.4336-62.10048-270.92992-62.10048-207.2064 37.56032-218.22976 146.57024c-10.97216 108.9536 52.9664 167.97184 143.0528 189.696 90.09152 21.8368 173.26592-0.21504 245.6832-35.67104 72.4224-35.39968 143.488-115.87072 143.488-115.87072l364.69248 177.1008c-14.87872 86.41024-89.856 149.51936-177.536 149.43232H205.73184C106.33728 998.49216 25.69216 917.9904 25.6 818.60096v-612.864C25.50784 106.33728 106.01472 25.69216 205.40416 25.60512h612.864c99.39456-0.09216 180.03968 80.4096 180.13184 179.79904v482.24256z m-455.59296-60.8s-112.46592 136.94976-244.98176 136.94976c-132.57216 0-160.40448-65.07008-160.40448-111.872 0-46.7456 27.56096-97.60256 140.35456-104.95488 112.73728-7.3472 265.088 79.87712 265.088 79.87712h-0.0512z" fill="#02A9F1" p-id="2161"></path></svg>